<svg xmlns="http://www.w3.org/2000/svg" viewBox="0 0 253.15 120.7"><defs><style>.a{fill:#141515;}</style></defs><path class="a" d="M150.68,87.35V74.84h10.54V87.35Zm19.76,5.14V75.1c0-2.24,3-5.14-1.45-6.46l-7.77-2.37c-1.32,1.71-2.37,2.64-4.35,2.64h-6.19c0-.66-.53-1.32-1.85-1.58l-7.38-1.45v34.91c4.22.4,9.23-.92,9.23-6.32V93.28h10.54V98C165.57,99.08,170.44,97.23,170.44,92.49Zm81.88,20.29c-9.88-6.85-17.65-19.5-23.18-31.36a93.18,93.18,0,0,1-7-22.66L223.34,44c.13-2-.26-2.38-2.53-3l-7.55-2c-.13,17.65-2,33.46-5.53,45.32a73.83,73.83,0,0,1-20.82,32.94c-1.85,1.71,0,2.9,1.32,2.24C201,113.57,210.36,100.4,215.65,88a72.82,72.82,0,0,0,4.24-14.36c.79,3.82,1.74,7.64,2.79,11.07,3.95,12.38,11.07,24.24,15.94,29.77,4.09,4.75,4.22,4.75,9.36,2.38l4.61-2.11C253.25,114.49,253.51,113.57,252.32,112.78ZM152.39,37.29v-10h9.75v10Zm19,5.13V27.27c0-2,3-5.14-1.45-6.32l-7.77-2c-1.45,1.72-2.77,2.51-4.61,2.51h-5.14c0-.66-.53-1.32-1.71-1.58l-7.51-1.32v30c4.21.52,9.09-.27,9.22-5.54h9.75v4.48C166.49,48.49,171.36,46.77,171.36,42.42ZM187.44,61H193c4.08,0,6.72-1.32,6.72-4.21,0-2.38-2.24-3.56-4.88-6.06-2,2.24-3.42,3.82-5.66,3.82h-2V13.18h5c4.08,0,7-1.19,7-4.22,0-2.11-2.24-3.69-4.87-6.19-2.11,2.37-3.56,4-5.8,4H134.6c2.38,5.14,3.17,6.46,5,6.46h37.68V54.55H134.21C136.18,59.68,137,61,139,61h38.47v45.46a1.24,1.24,0,0,1-.52,1.18c-.66.4-9.62.27-12.52,0-1.58-.13-1.71,1.45-.26,2,4.08,1.45,9.88,4.08,13.3,7.25,4.48,4.21,10,.52,10-5.67ZM196,47.17a80.17,80.17,0,0,0,10.67-14.76H237.9c-1.32,4.35-2.9,8.3-5.4,14.36-.53,1.45,1.05,2.51,2.37,1.19,4.74-5,8.3-9.36,13.17-15.15,2.11-2.51,1.72-3.3-1-5.67l-4.61-4.08c-2,2-3.3,2.63-5.93,2.63H210.23c3.16-5.93,5.93-12.12,8.3-17.65,1.19-2.77,1.05-3.3-2.5-5l-6.2-3c-2.89,12.91-9.61,33.2-15.94,45.46C193,47.3,195,48.22,196,47.17ZM16.42,100.24c-2.77,4.22-7.77,8.83-13.31,12.65-6.72,4.61,1.72,11.73,8.83,5.14,4.48-4.09,6.59-11.59,7.12-17.13C19.19,99.56,17.47,98.64,16.42,100.24Zm17-.48a1.4,1.4,0,0,0-2.51.92c.27,3.43.66,9.64.93,14.93.26,6.59,10.67,4.09,9.09-4.1C40.14,107.42,36.58,102.79,33.42,99.76Zm17.65-1.47c-1.32-.66-2.77.26-2,1.58C50.81,103,52.52,107,55,112.25c2.9,6.2,10.28.4,7.38-5.27C60.43,103.16,56.47,101.19,51.07,98.29Zm31.23,3.42c-2.11-2-7.53-3.82-11.22-4.61-1.19-.26-2.64.66-1.58,2,2,2.5,4,4.87,7.13,8.69C81.24,113.44,86.91,105.93,82.3,101.71Zm-51-32.28V64.69H73.47v4.74ZM73.47,54.68v5H31.31v-5ZM105,39l-4.22-4.18c-2,1.85-3.56,2.24-6.19,2.24H15.89V35.71a1.36,1.36,0,0,0-2.63-.29C9.83,43.08,5.48,46.25,1.66,50.33c-5.53,5.8,4,12.65,10.68,2.5,1.58-2.5,2.5-6.06,3-9.75h30.3c-.66,2.11-1.19,4.22-2.11,6.46H31.31c0-.66-.79-1.32-2.24-1.58L20.9,46.38V98.79c4.48,1.06,8.83-.66,10-3.66H94.29c-1.19,7-2.11,10.23-3.69,13.13-1.72,3.14-2,3.8-16.08,2.74-1.45-.13-1.84,1.32-.39,2,2.9,1.34,7.11,2.92,10.54,5.16s4.61,2.5,7.24,1.84c9.75-2.5,11.73-22.09,12.13-23.54s4.08-3.69-1.45-6.32l-7.12-3.29a5.87,5.87,0,0,1-5.14,2.63h-59V84.85H91.39c4.61,0,5.79-1.45,5.79-3.43,0-1.58-1.71-3.16-4.21-5.4-2,2.24-3.29,3.43-5.53,3.43H31.31v-5H73.47v3c5.53.92,10.28-1,10.28-5.66V55.2c0-2.5,2.76-4.21-1.58-5.66l-8.7-2.77c-1.32,1.58-2.24,2.77-4.48,2.77H50c1.84-2.11,3.95-4.61,5.27-6.46H95.47c-1,2.11-3.69,7-5.4,9.75-1.19,1.85.92,2.51,2.11,1.72,2.9-2,9.35-7.12,14-10.57C108,42.64,107.86,41.85,105,39ZM61.87,21c1.72-2.9,2.51-7.38,2.51-12.39,0-1.45-1.71-1.84-2.51-.26-2.21,4.48-4.32,6.32-8.54,9.88C47,23.54,56.5,30.15,61.87,21ZM13.79,21c1.71-2.77,2.76-6.85,3-12.39C17,7.2,15.1,6.81,14.31,8.39,12.47,12.08,9.7,14.84,5,18.27-1.76,23.15,8.25,30.15,13.79,21ZM51.18,34.12c-1.32.66-.92,2.46,1,2.2,9.22-1.14,18.57-4.59,23.58-12l.66-1A90.61,90.61,0,0,1,88.62,33.47c7.64,7.33,12.52-2.4,5.67-7a30.51,30.51,0,0,0-8.17-4,119.5,119.5,0,0,0,13.17-9.23c1.58-1.45,1.45-2-1.05-3.82l-5.4-3.95A127.28,127.28,0,0,1,82,21.17l-4-1.19A38.71,38.71,0,0,0,81.37,5c0-1.31-.39-1.71-2.37-2.24L71.62,1c-.52,10.28-1.18,14-3.42,18.58C65,26,60.56,29.62,51.18,34.12Zm-46.49.4c-1.31.79-.79,2.63,1.19,2.24,10.94-2.24,18.84-7.91,23.19-14.36.26-.53.66-.92.92-1.45,4.35,2.9,7.38,6.06,11.73,10.14,7,6.72,11.61-2.89,6-6.85A31.84,31.84,0,0,0,38.69,20a105.43,105.43,0,0,0,13.44-8.3c1.6-1.19,2-2-.27-3.56L46.06,4A144.35,144.35,0,0,1,35,18.84c-1.19-.26-2.37-.66-3.69-.92a49.89,49.89,0,0,0,2.77-13c.13-1.84-.14-2.1-2.24-2.63L24.33.53C23.93,7,23.14,13.44,20.9,18.45,18,25,14.05,29,4.69,34.52Z"/></svg>