<svg xmlns="http://www.w3.org/2000/svg" viewBox="0 0 257.07 119.93"><defs><style>.a{fill:#141515;}</style></defs><path class="a" d="M184.48,38.47l-5.14-4.21c-2.24,2-3.3,2.37-6.72,2.37H140.21c1.71,4.61,2.5,7.24,4.48,7.24h30.83c-4.88,19.24-19.24,45.85-35.31,61.14-1.85,1.71,0,3.29,1.31,2.63C163.92,95.26,180.26,68,187,44.14c.53-2,.79-2.9-2.5-5.67m71.8,58.24C240.07,87,230.85,78,220.71,65.61A84.37,84.37,0,0,1,212,52.7c10.54-5.14,25.43-14.76,33.07-21.21,1.85-1.58,1.32-2.37-1.05-4.48l-6.19-5.4c-6.46,9.48-17.66,20.29-27.67,27.67a122.57,122.57,0,0,1-5.8-14V4a2.49,2.49,0,0,0-2.11-2l-9-2V105.4c0,.53,0,.79-.66,1.06s-13.44-.27-16.6-.27c-1.45,0-1.58,1.72-.26,2.24,3.56,1.3,10,3.14,15.81,9.18,5.4,5.67,12.78,0,12.78-6.7V51A109.68,109.68,0,0,0,217,74.31c6.85,9.88,15.81,20.29,24.37,27,3.82,2.9,5.4,2.5,9,.79,1.71-.79,3.82-2.24,5.8-3.43C257.07,98.16,257.6,97.5,256.28,96.71ZM54.83,62.85c-3.4,7-8.15,12.91-14.6,19.76-5.41,5.66,4.61,15.28,12,2.5C54,82,56.28,73.91,57.33,63.37,57.46,61.92,55.36,61.66,54.83,62.85Zm62.58,49.8c-13-6.72-25.29-16.21-33.46-27.14a136.43,136.43,0,0,0,21.34-15.29c1.85-1.58,1.32-2.37-1.32-4.47l-5.79-4.88A124.33,124.33,0,0,1,81.71,82.35a64.58,64.58,0,0,1-4.22-7.78,119.1,119.1,0,0,0,1.85-17.65c.13-2.37-.4-3.3-2.51-3.82L69.06,51c-.53,20.29-2.37,34.25-10.81,45.32-6,7.91-15.52,14.63-28.56,19.76a1.44,1.44,0,0,0,.79,2.77c15.41-2.24,27.38-8.56,35.28-17.26,4.48-4.87,7.52-10.93,9.62-18a83.5,83.5,0,0,0,28.2,34c4.61,3.17,5,2.9,14.1-2.89C119,113.83,118.73,113.31,117.41,112.65ZM9.79,49.28c5.27,8.16,13.31-2,6.72-9.36C13.22,36.23,8.58,34,2.26,31.09.39,30.3-.4,31.62.53,33.2,3.18,37.68,6.21,43.74,9.79,49.28ZM37.61,25c.66-2.24-2.1-3-2.9-.66C29.6,38.45,19.54,64.43,13.88,74.18c-2.4,3.95-4,4.87-12.41,5.53-2.11.13-1.85,2.64.13,2.77,8.32.52,13.84,2.37,14,6.72.26,6.85-5.12,14.89-6.83,21.21a6.33,6.33,0,0,0,6.43,8.3c4.61-.13,8.3-5.67,8.3-13,0-4.61-.92-10.54-2.76-19C19.15,79.32,27.34,60.61,37.61,25Zm16.32,8.57c2.5-4.22,3.69-11.86,4.22-20.56.13-2-2-2-2.64-.39C53,18.42,48.66,24,43.54,29.89,37.61,36.61,48.13,43.32,53.93,33.58ZM21,20.53C27.21,29,34.06,18,27.6,11.31,24.31,7.88,19,5.91,12.67,3.4c-2.11-.79-2.9.79-1.71,2.37C13.35,8.94,17,15.13,21,20.53ZM35.77,58.24a1.37,1.37,0,0,0,.79,2.63C51.82,58.63,64.45,51.38,71,41.61a34.08,34.08,0,0,0,3.82-7.9c11.06,8.69,15.94,14,27.53,24.13,8.43,7.25,13.31-2.37,5.54-9.49-5.54-5-13.44-9.64-22.53-14.12,4.74-3.16,14.23-9.75,20.68-15.15,2-1.71,1.58-2.24-.53-4.08L99.23,9.46A154.71,154.71,0,0,1,81.84,32.52L76,29.75a99.47,99.47,0,0,0,2.64-24.5c0-1.71-.79-2.37-2.51-2.77L68.27.64c-.13,15.68-.4,27.27-5.14,36.36C58.54,45.85,49.84,53,35.77,58.24Z"/></svg>