<svg xmlns="http://www.w3.org/2000/svg" viewBox="0 0 257.64 120.56"><defs><style>.a{fill:#141515;}</style></defs><path class="a" d="M252,39.79c-2.76,3.16-4.21,4.61-6.71,4.61H207.4c2.92-1.58,4-7,.92-10.54-2.63-3-7.4-5.27-13.46-7.64-1.71-.66-2.63.66-1.71,2.24,2.11,3.56,3.95,7.11,6.85,11.86A10.8,10.8,0,0,0,204,44.4H143.61c2.77,5.67,3.43,7.12,5.93,7.12h33.6c-.53,15.41-2.9,26.48-7.12,36.23-4.61,10.67-13.44,20.44-30.56,29.67-2,1-1.06,3,1.18,2.5,19.11-4.35,30.7-14.23,37-25.06A72.76,72.76,0,0,0,192.1,72.6h34.65c-1.06,14.75-3.69,28-6.44,33.88-1.45,3.16-2.24,3.42-16.22,2.24-1.32-.13-2.11,1.32-.66,2,4.24,1.84,9.13,4.47,11.61,7,3.3,3.29,5.67,3.56,8.94,1.84,7.14-3.69,11.64-14.89,14.27-46.4.14-1.58,4.37-5-1.71-7.37l-9.4-3.69c-1.71,2.1-3.42,3.42-6,3.42H193.41c.53-4.35.93-9,1.19-14h55c5.4,0,7.9-1.45,8-4.48.07-2.24-2.43-4.09-5.6-7.25M149,22.53h26.88V38.47c6.06,1.32,10.54-1.31,10.54-6.59V22.53h29.51V37.81c5.54.93,10.54-.92,10.54-6.45V22.53h23.06c4.48,0,7.38-1.32,7.38-4.35,0-2.11-2.24-3.69-5-6.45-2.5,2.63-3.82,3.69-6.32,3.69H226.48V4.74c0-.66-.65-1.45-2.5-1.84l-8-1.58v14.1H186.43V4.35c0-.92-.92-1.58-2.37-1.85L175.89.92v14.5H143.61C146,21,146.64,22.53,149,22.53ZM113.57,51.78c4.48,0,6.46-1.58,6.46-4.35,0-1.71-2.24-3.69-4.88-6.06-2,2.37-3.16,3.82-5.66,3.82H44.27c2.24,5.14,2.63,6.59,4.61,6.59H72.2a88,88,0,0,1-4.48,11.86H57.58c-.14-.53-.66-1.19-2.24-1.58l-7.25-1.45v59.2c4.87,1.18,9.49-.92,9.49-5.16V70h9.48V112.8c4.61,1.19,9.23-.94,9.23-5.29V70h9.48v39.26c4.61,1.19,9.22-1,9.22-5.53V70h9.49v39c0,.53,0,1.05-.53,1.19-1.45.39-6.45.26-10.14.26-1.71,0-1.85,1.45-.4,2,3.43,1.34,8,3.31,11.47,6,4.47,3.43,9.09-.66,9.09-5.42V70.88c0-2.76,3.42-5.79-2-7.64l-7.51-2.5c-1.71,2-3,2.9-5.27,2.9H73.78a96.84,96.84,0,0,0,9-11.86ZM44,78.92,30.3,83.8v-29h5.8c4.88,0,7.38-1.45,7.38-4.22,0-1.71-2.11-3.69-5-6.32-2.5,2.5-3.82,3.56-6.19,3.56h-2V20.55h9.75c4.61,0,7.12-1.45,7.12-4.34,0-1.85-2.11-3.69-5-6.33-2.5,2.51-3.95,3.69-6.06,3.69h-34c2.37,5.53,3,7,5.27,7H20.16V47.83H2.63c2.64,5.66,3.17,7,5.27,7H20.16V87C13.7,89.07,7,90.91,0,92.89c6.59,7.77,7.77,9,11.33,7.11,11.73-6.06,23.72-11.59,33.86-18.71A1.34,1.34,0,0,0,44,78.92ZM61.13,34.39h39.13v4.74c4.88.79,9.62-.66,9.62-6.06V9c0-.66-.79-1.45-2.37-1.71L100.26,5.8V27.93H85.51V3.16c0-.52-.79-1.18-2.37-1.58L75.89,0V27.93H61.13V9c0-.66-.79-1.45-2.37-1.71L51.52,5.8v34C57.05,40.58,60.61,38.6,61.13,34.39Z"/></svg>