<svg xmlns="http://www.w3.org/2000/svg" viewBox="0 0 256.2 115.83"><defs><style>.a{fill:#141515;}</style></defs><path class="a" d="M204,54.16V37h22.26V54.16Zm-32.81,0V37h21.87V54.16ZM226.29,12V30.05H204V12Zm-33.2,0V30.05H171.22V12Zm57.84,89.33c-2.63,3-4.35,4.22-6.59,4.22H204V88.41h32c4.88,0,7.38-1.45,7.38-4.48,0-1.84-2-3.69-5-6.85-2.5,3-4.08,4.09-6.19,4.09H204v-20h22.26v6.19c5.27.92,10.81-.79,10.81-6.72V13.05c0-2.64,3.82-6.85-1.85-8.56l-9-2.77C224.45,3.83,223,5,220.36,5H171.22c0-.66-.79-1.45-2-1.71l-8.82-1.71V68c5,1.05,10.67-1,10.8-6.85h21.87v20H152.51c2.5,5.66,3,7.24,5.53,7.24h35.05v17.13H140.65c2.64,5.93,3.43,7.51,5.93,7.51H248.43c5.14,0,7.77-1.45,7.77-4.74C256.2,106.33,254.09,104.49,250.93,101.32ZM2.57,115.51C16.67,108,25.9,96,32.62,84,42,67.31,47.37,46.36,49.48,20c.26-2.5-1-3.42-3.95-4.35l-7.65-2.5c-1.44,29.49-6.06,49-14.49,67.55A110.19,110.19,0,0,1,.73,113.14C-1,114.85.6,116.56,2.57,115.51Zm109-3.82L116,110c1.19-.53.93-1.19-.13-2.11C101.26,95.48,88.21,75.21,82.29,52.69A265.2,265.2,0,0,1,74.78,2.9c-.14-1.58-2.9-3.42-8.7-2.76C67.4,19.77,69.64,39,73.33,55.19c5.14,22.4,14.75,41.74,25,53.86C103.5,115.11,104.42,114.46,111.53,111.69Z"/></svg>