<svg xmlns="http://www.w3.org/2000/svg" viewBox="0 0 805.48 134.86"><defs><style>.a{fill:#231916;}.b,.c{fill-rule:evenodd;}.c{stroke:#231916;stroke-width:0.77px;}</style></defs><path class="a" d="M505,64.39v1.28c-.28,2.88-3.05,3.65-6,3.43-.67.17-.78.72-1.45.61-.88,1.06-1,2.94-1.32,4.6.33.17.44.5.61.83-.34,4.49.6,7.76.49,12.08-.11.5.34.44.34.83-1.06,1.17-1.55,2.5-1.28,5.32.06.61.39,1.28.45,1.77,0,.17-.28.45-.23.61.06.34.39.56.45.84s-.17.22-.22.49.27.83.22,1.06c0,.44-.22,1-.22,1.27,0,.61.6.94.6,1.44,0,.67-.38.56-.72,1.17a6.92,6.92,0,0,1-.11,1c-.16.39-.55.78-.61,1.06-.33,1.44.84,3.26.72,4.59-.16,1.83-2.32,2.66-3.21,3.83.11.33.39.88.11,1.16-2-.22-3.6.39-5.43-.11v-.83a10.67,10.67,0,0,0-3.21-.61c-2.39-.39-2.94-3-5.54-3.21-1.56-1.39-2.61-3.27-4.77-4.1a6.93,6.93,0,0,0-1.22-2.39V102c1.66.39,4.27-.28,5,1.05,1.39-.11,2.66.78,3.88.95.72.05,1.56-.12,2.39,0a6.06,6.06,0,0,0,1.33.22c3.71-.34,3.87-6.65,3.65-10.09,1.66-2.55.89-7.2,1.17-11a3.63,3.63,0,0,0,.22-1.06c0-.77-.45-1.6-.45-2.38,0-1.77.39-3.71.45-5.54a6.8,6.8,0,0,1-.56-2.49c-1.22-1.72-2.32-.39-4.15,0-1.39.27-3.11.27-4.6.44-.94.17-1.83.72-2.6.89a17.9,17.9,0,0,0-1.94,0c-.61.11-1.22.88-1.89.55-.44.06-.33.61-.72.72s-.66-.11-1.05-.11c-.06,0-.11,0-.17,0V70.88c.83-.39,1-.89,2.16-1.17.61-.16,1.06-1,1.83-1.22A34.62,34.62,0,0,0,484.21,66c.77-.33,1.33-1.22,2.05-1.5s1.66,0,2-.94c.06-.66-.33-.88-.44-1.33.33-.61.94-.94,1.16-1.66,0-.78-.66-.89-.72-1.66s.61-1.22.5-2c-.22-1.22-2-1.71-2.38-2.82-.17-.56-.56-1.55-.61-1.94-.28-2.44,1.72-3.33,2.05-5.65,1.05-.78,2.77-2,4.6-1.56.72.17,1,1.22,1.88,1.06a3.93,3.93,0,0,0,2,2.27c.45.94-.27,1.61-.39,2.38-.16,1.28,1.11,2.61,0,3.77.72.83.28,2.83,1.44,3.21-.16.89.34,1.22.61,1.78a5.09,5.09,0,0,1,1.78.83,5.45,5.45,0,0,1,.11,1c.66.78,1.66.44,2.49.72,1.11.39,1.72,1.77,2.61,2.38ZM473.4,99.25c1.28-1.67,2.72-3.22,4.1-4.77-.55-1.72.78-2,.56-3.71a2.16,2.16,0,0,0-1.39-.56,4.27,4.27,0,0,0-3.27-2.16v11.2Zm0-61.07V30.37c1.94-.16,3.66-1.49,5.77-1.16.38.05.77.44,1.27.55.22.06.55-.05.72,0a3.87,3.87,0,0,0,1.88.72,4.52,4.52,0,0,1,3.44,2.5c-1.22,1-1.66,2.71-3.33,3.32-.88-.28-1.27.06-2.1.11a2.22,2.22,0,0,0-.5.94c-.55.06-.61-.38-1.16-.33A13,13,0,0,1,473.4,38.18Zm0,64.22a3.36,3.36,0,0,0-.55-.61.86.86,0,0,0,.55.17v.44Zm0-28.26a7.55,7.55,0,0,0-1.27,1c-.39,0-.5.22-.94.11-1.28,1.44-3.72,1.67-4.82,3.22-2.66.22-3.16,2.6-6,2.6.22-1.27,1.55-1.44,2.21-2.27-.39-.67.11-1.33.39-1.77,2.16.33,2.33-1.33,3.77-1.78v-.94A16.08,16.08,0,0,0,470,72.76c.33-.22.56-.78.94-1.05a12.88,12.88,0,0,1,2.39-.83h0v3.26Zm0-43.77h-.55a3.72,3.72,0,0,1-1.5,1.28h-1.22c-.44,1.71-2.38,1.27-4.15,1.66-.56.17-.83.89-1.39.5a7.76,7.76,0,0,1-3.93,1.66,5.83,5.83,0,0,1-4.16,1.27c-.5.89-1.55.78-2.6,1.11-.33.06-.61.39-.94.45a13.83,13.83,0,0,1-1.44,0,13.32,13.32,0,0,0-2.72,1.05c-.88.33-1.83.22-2.33.61-2.38-.11-3.54,1-5.7,1-.39.11-.39.61-.83.61-1.83.5-4.05.44-5.93.94-.34.11-.5.33-.83.39-1.22.11-2.44-.5-3.55-.28-.44.11-.72.5-1.05.61a2.92,2.92,0,0,1-.72.06v1c1.55.22,2.71,1.83,4.26,2.11.61.11,1.28-.17,1.89-.11,2,.11,3.27,1.33,4.87,1.49,2.5.33,4.88-1,7-1.16,1.22-.67,2.11-1.94,4-1.55.17.61.78,1.1.72,1.77,0,.44-.49.66-.72,1.22-.11.28,0,.61-.11.83-.61,1.27-2.16,2.27-2.82,3.55-.22.33-.06.77-.22,1.16-.39.89-1.28,1.5-1.67,2.27-.11.17.06.61,0,.83-.33.83-1.49,1.17-1,2.5-.28.44-1.11.6-1.44,1.05-.17.22-.11.72-.22.94-.28.44-.89.61-1.11.94s-.11,1-.33,1.44-.72.56-.94.94-.23,1.06-.5,1.56c-.45.77-1.22,1.22-1.17,2.32A16.41,16.41,0,0,0,435,71.93a11.56,11.56,0,0,0-.83,4c.05,2,2.44,1.06,4.15.83,1-.55,1.67-1.38,3.11-1.55.61-.55.61-1.83,1.6-2,.56-2.27,2.55-3,4-4.27-.33-1.33,1.16-1.94,1.77-3.1.28-.44.11-1.22.5-1.77s.94-.5,1.38-1c.34-.27.5-.88.84-1.27s.77-.39,1-.61.23-1,.56-1.44c.61-.78,1.49-1,1.66-1.66s-.11-1.5,0-2.11c.22-1.11,1.22-1.77,1-2.82,0-.5-.55-1-.66-1.56-.33-1.38-.11-3-.61-4.37-1.11-.83-2.44-1.33-2.5-3.22.89-1.27,3.49-.83,4.49-2a3.42,3.42,0,0,0,1.33-.28c.39-.16.5-.66.95-.83a9.78,9.78,0,0,0,4.59-1.16,21,21,0,0,1,2.5-.34c1.22-.44,1.22-1.44,2.6-1.44,1.55,0,3.27.11,4.93.11V30.37Zm0,57.68a15.56,15.56,0,0,0-7.75.72c-1.17.45-2.5,1-2.72,1.89.5.27.67.94,1.66,1.33,2.33.88,7-.67,5.88,2.71a1.48,1.48,0,0,1-1.06.33A7.55,7.55,0,0,1,468,97.31c-1.06,2.32-3,3.71-3.82,6.26,1,.88,1.82-.34,2.38-.95,1.94-.44,3.05-2.38,5.54-1.55.39-.61.83-1.21,1.27-1.82V88.05ZM427.86,76.14V67.39a2.17,2.17,0,0,1,.44.55c.06.83.39,2.22-.22,2.71.16.28.66.23.72.56a16.74,16.74,0,0,1-.94,4.93Zm43.71-57c.06,2.94-5.81,1.89-8.64,2.22-.61.5-1.22.22-2.16.28-1.5.05-3.21,1.11-4.38,1.05-1-.06-1.83-.89-2.71-1.16s-1.94-.17-2.61-.5c-1.11-.56-1.11-2.27-2.6-2.5.61-1-1.39-1.1-.83-2.49,3-.61,6.81.22,8.75-1.55,2,.44,4.38-.06,6.76-.22s6.1.55,7,2.05c.17.22.22.72.5,1.16.39.72.94,1.11.94,1.66ZM455.12,85.23c.66.88-.33,1.6-.5,2.49-.06.33.17.72.11,1-.06.61-.55,1.28-.72,2-.17,1,.22,2.27-.44,3.21.5.28.16,1,.33,1.77.11.5.61,1,.61,1.56a7.17,7.17,0,0,1-.39,1.16c-.33,1.66.11,4.71-2.44,4.65-1.16-.05-1.44-.94-2.49-1.21-.06-1.39-2-2.94-1.94-5,.06-.5.44-.94.5-1.5.05-.77-.17-1.6-.11-2.38.05-1.5-.39-3-.22-4,.05-.45.5-.67.55-1.06.33-1.22-.5-2.27-.55-3.32-.06-.39.16-.67.11-.94-.28-.89-2-1.83-.72-2.94-.28-.72-1.56-.89-1.56-1.55s1.33-1.28,2-1.22c1.38.16,2,2.1,2.77,2.6.11,1.83,1.39,2.55,2,3.94v1C453.23,85.73,453.84,84.67,455.12,85.23ZM427.86,43.34v1a2.92,2.92,0,0,0-.72-.06c0-.22-.06-.38-.22-.44.11-.5.49-.55.94-.55Zm0,24v8.75c-.61,2-1.22,3.82-.83,6.09-1.83,1.06-.34,4.94-1.78,5.82a2.21,2.21,0,0,1-.5,1.55c-.16,1.72.34,2.94-.11,4.16-.16.44-.83.66-1.05,1.16a3.73,3.73,0,0,0,0,2.88c-.83.78-.5,2.06-1.55,2.55.66,1.22-.61,2.16-.72,3.33-1.61.5-2,2.32-3.77,2.6.39-2.16,1.5-2.93,1.66-5.32,1-.55.5-1.6.72-2.6.06-.39.5-.67.67-1.17s.11-.88.28-1.21.55-.72.72-1.17c.27-1.1-.23-2.16.55-2.82a1.24,1.24,0,0,0,1.44-.61c-.28-1.44-.83-2.66-.61-4.16s-.28-2.93,0-4.26c.11-.56.78-1.11.83-1.67a18.13,18.13,0,0,0-.11-2.93c-.11-.78-1.05-1.61-1.16-2.5a9,9,0,0,1,.11-1.66c-.06-1.22-.39-2.49-.39-3.43,0-1.67.22-2.66-.83-3.66.55-.83-.06-2.11-.44-2.72,1.22-1.49-.06-3.6-1.33-4,.33-.83-.12-2.44.49-3,.11,0,.11,0,.11.16,3,2.72,5.93,5.49,7.49,9.7C427.75,67.27,427.8,67.33,427.86,67.39Z"/><path class="a" d="M411.34,107.5a7.14,7.14,0,0,1-4.32-.22c-1.16.44-3,.28-3.65-.5-3,.06-5.66-2-8.7-2.33-2-.16-3.88.45-4.55-1.49-4.1-1.28-5.65-5.1-8.86-7.32-1.05-1.82-2-3.77-3.27-5.59-.61-.89-1.55-1.5-2.11-2.33-.05-.11-.11-.17-.16-.28V67.83a10.08,10.08,0,0,0,.55-1.66c.28-1.56-.28-3.22.72-4.49,2.61-.5,4.27,1.88,5.65,3.65,1.06,1.33,2.66,2.89,1.94,5.38-.39,1.44-2.1,3.16-3.16,4.38-1.33,1.49-2.71,2.82-3.6,4a14.29,14.29,0,0,1-.11,2.22c1.5.55,1.89,2.22,2.83,3.43,2.21,2.72,5.87,4,8.2,6.71,3.16.77,4,3.82,7.15,4.65,3.76,5.15,11.58,6.32,15.45,11.36ZM372,55.86l3.69-2.94a6,6,0,0,1,.77-.44c.89-.44,1.89-.61,2.72-1,.33-.11,2-.55,2.3-.71a18.32,18.32,0,0,0,2.57-1.12c2-.83,3.85-3,5.07-4s1.69-.78,2.41-1.5c1.39-.17,2.39-.72,3.61-.39s1.73,1.69,3,2.33c-.11.66.45,1.33.22,2a17.45,17.45,0,0,1-2.54,2.44c-1.39.89-4.27,1.27-6.15,1.72a31.56,31.56,0,0,1-3.16.44c-1.06.17-1.53.19-2.53.41a21.86,21.86,0,0,0-2.51.7,16.56,16.56,0,0,1-2,.42c-.39.06-1.3.36-1.58.36a7.81,7.81,0,0,0-2.29.87l-2.86.51Zm3.69-14V24.94c3.43.33,7.64.56,8,3.44.22,1.72-1.27,2.66-2.21,3.71-1,2.22-2.61,4-3.72,6.21A18.79,18.79,0,0,1,375.72,41.84Zm0,45.6c-.45-.83-.94-2.27-1.94-2.44s-2.77,1.39-3.55,2.11c-1.05.94-1.94,2.33-2.82,2.94a5.92,5.92,0,0,1-1.11.44c-1.17.89-2.05,2-3.33,2.94a6.73,6.73,0,0,1-1.83,1.22c-.49.27-.72.66-1.6.49-.28.06,0,.67-.33.61-1.94,0-2.5,1.72-3.83,2.44a8.31,8.31,0,0,1-1.22.39c-.94.44-1.38,1.11-2.44,1.33V98.19c1.33-1.38,3.44-2.38,4.38-4.15.33,0,.22.5.5.5a12,12,0,0,1,4.65-4.27c1.11-2.27,3.38-3.16,5.16-5.27.94-1,2.55-2.93,2.71-4.15.34-2.16-1.55-4.27-2.55-5.65a16.22,16.22,0,0,0-2.1-2.55,18.11,18.11,0,0,0-4.93-3.44c1.88-.33,3.77.5,5.32,1.28a39.3,39.3,0,0,1,4.65,2.27c1.05.72,1.61,2,3.32,1.72a10.58,10.58,0,0,0,1.84-4c.27-.89.71-1.77,1.05-2.66V87.44Zm0-62.5v16.9a4,4,0,0,1-.45.61c-2,2.49-3.87,5.21-6.37,7-1.33-.33-1.22-1.55-1.11-3.32,0-.67-.05-1.44,0-1.72.11-.44.67-1,.95-1.66.83-1.77,1.05-4.1,1.6-6.37.28-1.11,1.11-2.16,1.39-3.22.11-.44.11-1,.22-1.44.22-.72.72-1.33.88-1.94a12.29,12.29,0,0,0-.16-4c.5-.72,1.33-.22,1.88-.89a7.72,7.72,0,0,0,1.17.11Zm0,28v1.39c-1.11.39-1.89,1.61-3.05,2.1a14.37,14.37,0,0,1-1.44.23,25.74,25.74,0,0,1-3.44,1c-1.88.28-3.87.17-5.32,1.11-.61-.22-1.6-.05-2.16-.28-.33-1.6.89-2.21,1.44-3.26,1.06-.78,1.78.66,2.72.83.61.11,1.22-.39,2.21-.61s2-.22,2.72-.5,1.05-.89,1.55-1.11c.94-.33,1.83.06,3-.11a6.65,6.65,0,0,0,1.78-.78Zm-24,39.68a1.64,1.64,0,0,0,1.11-1.33,5.67,5.67,0,0,0-1.11-2.66Zm0,7.31c-.22,0-.44.06-.66.06V99a2.58,2.58,0,0,1,.66-.83v1.72Zm0-11.3v4a3.41,3.41,0,0,1-.66.22V88.05c.22.17.44.28.5.39s.11.06.16.17Zm-.66-16.29V58.8a5.49,5.49,0,0,1,.39,1.88,31,31,0,0,1-.33,3.44c-.23,2.21.38,4.76.11,6.81C351.17,71.43,351.12,71.87,351.06,72.32Zm0,27.65a1.09,1.09,0,0,1-.44-.06,2.74,2.74,0,0,1,.44-.89v1Zm0-41.17V72.32a40,40,0,0,1-.83,4.48c-1.66.45-2.55-.88-3.82-.94-.45-1.38-2.16-1.6-1.94-3.32,1-.44,2.6-1.17,2.82-2.55.11-.67-.16-1.5-.11-2.11.11-3.82.39-8-.39-11.74,1.78-.67,3.49.77,4.27,2.66Zm0,29.25a7.92,7.92,0,0,1-.83-.5c-2.11-1.33-2.94.23-5.26,1.22a28.23,28.23,0,0,1-4.33,1.5c-1.82.39-5.21.39-6-1s.17-4.1.11-5.59c-.06-2-.28-3.88-.22-5.88.05-4.32-.11-8.36.33-12.35a2.4,2.4,0,0,1,0-2.44c-.77-.94-.22-2.33-.22-3.66s-.39-2.71-.5-4.15.22-3.16,0-4.44c-.28-1.77-2.05-3.54-.72-5.37,1.22-.67,2.77-.72,4.16-1.22.88-.33,1.55-1.11,2.43-1.33,1.06-.33,2.28-.22,3.11-.61,1-.5,1.44-1.61,2.54-1.83,1.45-.39,4.38.39,4.94-.89.33-.83-1-2.32-1.83-2.82s-2-.72-2.83-1.11c-1.6-.66-2.44-1.16-3.6-.72-.39.17-.83.11-1.33.28-.78.22-1.55.77-2.44,1.11s-1.88.49-2.82.83c-1.61.55-3,1.77-4.44,2.21-.88.28-2.05.45-3,.72a15.59,15.59,0,0,1-4.44.72c-2.77,0-5.2,1.72-8.2,1.11.06,1.28,1.28,1.61,2.33,1.61a2.87,2.87,0,0,0,.5,1.55,10.72,10.72,0,0,0,4.65,2.83c2.11.44,3.05-.23,4.27-.72,1.66.61,1.5,2.54,1.72,4.65a29.66,29.66,0,0,1,.5,3.55c.05,2.77-.83,5.59-.72,8.53.11,2.38-.61,4.76-.61,7.09,0,1.11.22,2.22.11,3.21-.06.73-.45,1.39-.5,2.06s.17,1.16.11,1.71a35.09,35.09,0,0,1-.72,3.77,7.54,7.54,0,0,0,.39,3.32c.05.5,0,1.17.11,1.72.22,1.22,1,2.22.83,3.33-.5,2.82-5.37,2-7.81,2.44-.78.11-1.28.55-2,.33-1-2.33.83-5,1.22-8,.28-1.71.11-3.49.39-5.26-.89-1.11-1.11-3.1-2.33-4.65-.39-.5-1.16-.78-1.6-1.22-1.17-1.28-1.94-3.16-3.5-1.94-.27,1.16.56,1.88.5,3-.05.67-.5,1.39-.5,2,0,.5.34.89.39,1.33a11.08,11.08,0,0,1-.61,3.55c-.22.89-.33,1.77-.5,2.61-.38,1.6-1.16,3-1.6,4.65s-.67,2.93-1.22,4.38a32,32,0,0,0-1.39,4.26c1.55,2.39,2.5,5.77,5.54,6.15,2.28.28,3-1.6,4.49-2.32.33-.17.78-.17,1.22-.39a5.56,5.56,0,0,1,1-.61c.44-.17,1.11-.06,1.61-.22,1.55-.56,2.82-1.72,3.87-2,.78-.16,1.5,0,2.11-.22,1.27-.39,2.49-1.27,4-1,2.33-1.33,6-1.33,9.09-2a14.32,14.32,0,0,1,1.72-.61c.44,0,.94.17,1.33.11,1.72-.11,3.1-1.1,5-.83.33-.44,1.16-.55,1.94-.77Z"/><path class="a" d="M196.77,91.36c.22,1.39-.77,2.22-.72,3.71-.5.11-.11-.61-.66-.44-.11.72.55.66.55,1.27-.11,3.16-.61,5.43-3.38,6.15-1.72.45-4.6-.44-6.37-.49-.39-.06-.61.11-.89,0-.94-.11-1.77-.5-2.6-.61a14.57,14.57,0,0,0-5.32.72c-.94.28-1.77.22-2.55.44-.44.17-1.11.67-1.61.67-1.38-.06-2-2.11-2.55-3.43-.16-.5-.55-.89-.61-1.17a9.23,9.23,0,0,1,.34-4.76c.22-1,.55-1.67.83-2.94.39-2,1.72-3.66,2-5.1.17-.72-.05-1.6.11-2.33s.61-1.66.84-2.43c.27-1,.33-1.83.55-2.77.5-2.22,1.27-3.49,1.61-5.82.22-1.77,1.49-4,1.88-6,.28-1.38.94-4.65-.61-4.76-.78,0-.89.66-1.38,1.11-2.11.83-3.83,2.49-5.55,3.88a31.93,31.93,0,0,0-3.87,3.93c-1,1.22-1.56,2.83-3,3.6-1.38,1.89-2.77,3.88-4.32,5.71-.5.61-1.27,1-1.72,1.61s-.61,1.16-1,1.71c-.66.78-1.38,1.17-1.49,2.44-1.45.83-1.83,2.77-3.27,3.6,0,.45-.34.56-.34.94-1.71,1.28-2.43,3.39-3.82,5s-3.32,2.94-4.16,5.1c-3,1.83-4.59,6.15-8,7.2a3.47,3.47,0,0,1-2.11-.11c-.44-.11-.77-.5-1.27-.61-1.22-.39-1.66-.39-2.33-1.38A23.82,23.82,0,0,0,128,98.67c-.33-.66-1-1.33-1-1.94a8.85,8.85,0,0,1,.94-2.71c.83-1.11,2.55-1.22,3.6-2a3.57,3.57,0,0,0,3.11-1.55c-.06-1.94.22-3.77.11-5.43a5.54,5.54,0,0,1-.22-.94c.05-.89.77-1.72.33-2.66-.5-.5-1.66-.34-1.83-1.17a7.31,7.31,0,0,1-3.71-.33c-.28-.66-1.11-.72-1.61-1.16-.33-.28-.44-.83-.83-1.28s-.83-.44-1.05-.72c-.5-.61-.67-1.49-1.17-2.1s-1.22-1.17-1.71-1.83c-1.17-1.66-.56-4.16-2.33-5.32-.28-.67-.28-1.22-.5-1.77-.17-.34-.61-.39-.55-1.28,1.1.33,1.38,1.5,2.1,2.22.33,0,.94-.11,1,.11a24.7,24.7,0,0,0,5.77,3.93c1.11.06,1.88.61,2.82.34.67-.23.5-.72.89-1.22.33-.34.83-.17.94-.61-.05-2,.89-4,1.17-6,.05-.45-.06-.83,0-1.28s.27-.72.33-1.05a11.22,11.22,0,0,0-.33-2.55c-.12-.77.11-1.66,0-2.33-.17-1.33-.56-2.6-.84-4.26a21.19,21.19,0,0,0-1.82-4.88c2-.28,2.49.94,4.37.78a18.67,18.67,0,0,1,3.94,3.16,15.72,15.72,0,0,1,2.6,3.1c1.61,3.16,1.61,8.25,1,12.19-.06.39.33.39.28.83-.39.72-.17,1.33-.17,2.11-.11,1.66-.78,3.32-.89,4.87-.16,2.27.22,4.6-.72,6.48.5,1.89-.66,3.83-.11,5.38,1.83.55,2-1.39,3.38-1.66,1.72-2,4.1-3.55,6-5.54.67-.61,1.11-1.5,1.83-2,.5-.39,1.16-.5,1.66-.83,1.94-1.39,3-3.82,5.54-4.77V69.75c2.61-1.72,4.49-4.21,6.65-6.48.72-.72,1.66-1.28,2.33-2.05,2.16-2.11,4.71-3.88,6.93-6.15,2.1.16,2.71-1.17,3.49-2.44,0-1.11-.28-2.05.33-2.72-.67-1-.22-2.32-.33-3.49-.28-2.55-1.44-5.09-1.17-7.31.94-.94,2.55-1.22,3.6-2a5.53,5.53,0,0,0,3.27-.83c.83,1.11,1.33,4.1,1.72,5.82.17.72-.11,2.1.11,3,.17.55.89.89,1.16,1.38a3.86,3.86,0,0,1,1.78.61c1.33.72,2.66,1.39,3.32,2.66,2.16.11,1.44,3.49.5,4.66a6.66,6.66,0,0,1-2.44,1.72c-1.6.66-3.65.38-4.43,1.77-.44,1.27-.17,3.27-1.16,3.93.22,1.94-1.06,2.44-.83,4.32-.39.45-.5,1.06-.89,1.39-1.16,7.53-3.93,13.91-5.6,21.22,1.11,1.28,3.27.06,5.21-.22.83-.11,1.72.06,2.55-.11.55-.11,1.05-.56,1.66-.61a24.27,24.27,0,0,1,3.94.33,10,10,0,0,1,1.16-.11C194.11,88.15,196.61,90.09,196.77,91.36Z"/><path class="b" d="M257.42,34.72c3.57,2.55,7.91-.16,12.32-2.24,4.41-.58,8.89-4.71,12.72-2a57.13,57.13,0,0,0,9.24-1.38c3.52.12,6.59,1.43,6.51,5.67-.06,3-2,4.06-4.56,4.46s-5.75,1.7-8.32.55c-4.32-.84-8.71,0-13.14,3.65-4.42,1.88-8.88,0-13.34,2.79-.9.31-.81,4.21-.71,5,.09,1.83.18,4.66-.72,5,1.61-2.3,3.34-2.11,5.15-2,1.81-.7,3.69-1,5.6-1.7a7.57,7.57,0,0,1,5.77-1.13A15,15,0,0,1,279.6,54c-.21,2.48-.28,4.77-.35,7.06-.07,1.1-.12,4.53-.29,7.14-.33,4.17-1.1,13.58-3.29,13.39-2.2,3.14-5.81,8.24-11.81,4.61-1-4.58-2.24-3.39-3.39-4.13-1.14-1.59-2.24-1.31-3.05-4.46-1,2-1.17,4.69-1.06,9.62,0,1.64.11,3.17.19,5.73.08,2.26.18,3.32.27,4.53.09.34.18,2.42.24,3.75.07,1.78.11,2.61.11,3.78,0,1.38,0,2.19,0,2.83s-.06,1.12-.11,1.8c-.07,1.89-.16,3.14-.29,3-.13.82-.29.86-.49,2.22a4.62,4.62,0,0,1-1.69,3.06c-.74,0-1.68,1.83-2.85,2.66a21.47,21.47,0,0,0-1.76-4.84,20.13,20.13,0,0,0-1.1-3.28,9.39,9.39,0,0,0-.55-1.93c0-.78-.09-1-.1-2.15,0-.84,0-1.65,0-2.41,0,0,0-1.84.09-2.14a16.09,16.09,0,0,1,.16-2.23,18.29,18.29,0,0,1,.48-3.83,33.31,33.31,0,0,0,.61-4.23c.22-1.7.44-3.89.65-5.2.21-1.73.41-3.36.57-4.63.51-5.31.74-11.27.24-13.94-4,.07-6.16,5.7-8.46,8.89-2.3,6.77-4.77,8.25-9.43,9.72-.81-3.06-1.31-.7-1.56-4.36-.24,1.25-.23-5.76,0-5.87.21-3.43.61-3.45,1.15-6.63.54-4.42,1.21-3.75,2-6.61.74-4.83,1.57-.74,2.41-7,.84-4.57,1.7-5.33,2.51-3.2,1.23-1.58,2.92-.53,4.71-4.09,1.78-.36,3.67-1.72,5.31-2.35V44a23.2,23.2,0,0,0,12.35-1.18c3.54-1.93,6.53-5.17,9.12-6-4.31-.28-8.69,3.57-13,2.45s-8.67,5-12.85,5.12c-4.18,2.17-8.23,4.14-12,6-4,3.84-8,3.2-11,4.37-3.05.06-5.16-2-5.42-8.66,3.53.63,7.14-1.78,10.74-.72,3.61.15,7.2-2.81,10.69-4.13,3.49-1.89,6.88-4.78,10.06-4.45-1,1.27-3.18.91-4.3-2.15,2.13.87,2.34-4.2,1.73-7.95-.61-3-2-7.53-3.16-5.65,4.17-2,8.65-.36,11.73,1.7C257.19,28.3,258.87,28,257.42,34.72ZM251,61.91c.12-4.62.73-2.94.82-7.28.1-5-.31-5.89-2.25-5.6-1.35,1.34-2.61,5.34-3.74,4.28-1.12.81-2.1,4.64-2.89,3.94-.78,3.83-1.38,2.56-1.72,6.29-.34.25-.44,5.37-.24,4.81,1.5-.23,3.2.36,4.92-3.31C247.61,62.29,249.37,61.83,251,61.91Zm5.72,2.86c0,2.61.45,6.82,0,9.31,2.42,3.18,4.56-1.77,6.38,1.52,1.81,2.32,3.28-1.29,4.33-2.69,1.06-1.67,1.7-5,1.85-5.5a24.72,24.72,0,0,0-1.11-6.93c-2.32-.19-4.45,1.24-6.36,1.51C259.88,62.56,258.18,64.58,256.7,64.77Z"/><path class="c" d="M41.94,23.58c.25,2.43,0,2.69-.56,5.34a17.5,17.5,0,0,1-2.08,3.81c-.77.51-1.52,2.48-2,3.93.39,1.14.86-.12,1.41,1,.55.6,1.17-.26,1.83-.23.67.44,1.39-.06,2.13-.94S44.19,36,45,35.26c.77-.31,1.54-1,2.28-.74a1.63,1.63,0,0,0,2.15-.5,1.91,1.91,0,0,1,1.87.62,6.92,6.92,0,0,1,1.46,2.79c-1.05.32-2.37,2.94-3.84,3.12a9.42,9.42,0,0,1-4.79,1.78A38.16,38.16,0,0,1,39,43.2c-1.68.19-3.29.29-4.74.39a18.84,18.84,0,0,0,.47-4.33,31,31,0,0,0-.43-4.85C34,34,33.56,30.57,33,29.57a22,22,0,0,0-2.09-4.3A6.86,6.86,0,0,0,28.09,22a4.35,4.35,0,0,1,2.84-2.95c1.15-1.52,2.46.22,3.8.5,1.34-.34,2.7.85,4,2.1S41.06,22.77,41.94,23.58Z"/><path class="c" d="M109.66,49.74v3.08c-1.25.67-2.55,1.29-3.87,1.89s-2.68,1.18-4,1.74c-1.36,1.45-2.73.95-4.1,1.67-1.37-.26-2.74,2.08-4.09,1.68a4.3,4.3,0,0,0-4,1.8c-1.29-.27-2.56,1.95-3.77,2,.92.53,1.73,2.88,2.44,3.55a6.73,6.73,0,0,1,1,1.69c.3.77.58,1.91.83,2.72a11.64,11.64,0,0,1,.68,2.68c.21,2.19.39-.43.55,2.42.11,1.47.21,2.7.3,1.81a9.11,9.11,0,0,0,.24,1.89C91.9,79.56,92,82,92,82c.06-1.44.1,2.78.14,2.28,0,.37.07,1.28.09,2,0,2.28,0-.16,0,2,0,3,0,1.63,0,2.14,0-1.69,0,.74,0,2,0,3-.06.23-.1,2.69A27.85,27.85,0,0,0,92,97.84c0,.52-.07-.55-.11,1.62,0,2.38-.07-.76-.12,1.6a9.91,9.91,0,0,1-.27,2.22,12.15,12.15,0,0,1-.16,1.94c0,2.69-.11,1.9-.16,1.36s-.24.88-.36,2c-.13,2.28-.26,2.72-.4,2.88-.14.71-.28,1.29-.42,2.08-.59,3.19-1.23,6.1-1.88,8.57-5.29-.1-6-4.75-7.7-8.46a3.67,3.67,0,0,0,2.51-.19,1.37,1.37,0,0,1,2.11-.58c-.11-1.33-.2-2.81-.29-4.42-.08-.49-.15-2-.22-4.77a18.32,18.32,0,0,1-.08-2.57c0,.5-.06-.23-.08-2.45,0-1.72,0-2.1,0-2.15,0-1.49,0-1.65,0-1s0-2,0-2c0-1.26,0-1.13,0-2.85,0-2.12,0,.81,0-2.32,0-.88,0-3,0-3.82,0-2.52,0-2.74,0-3.73,0,.33,0-4.61,0-3.58,0-.61,0-2.73,0-3.39,0-.84,0-1.65,0-2.43s0-1.54,0-2.27c0-1.36,0-3.54,0-4-1.22.37-2.52,0-3.83,0-3.93.08-8,.32-10.79-.75-.37,1.67-.65,3.52-.89,5.49-.24,2.57-.42,4.48-.61,6.17-.18,2.13-.36,4.94-.58,6.4-.21,2.75-.46,3.73-.79,6.18a40.71,40.71,0,0,1-1.25,5.51c-1.56,5-4.18,8.36-9,8-2.41-2.64,2.45-2.67,3.08-4.61.38-1.26.76-2.63,1.12-4.09s.72-3,1-4.64a29.77,29.77,0,0,0,.88-5c.26-1.16.48-4.44.65-5.31a47.23,47.23,0,0,0,.34-5.43c0-1.77,0-3.19-.05-5.41a52.44,52.44,0,0,0-.51-5.25,34.1,34.1,0,0,0-2.7-9.46A71.66,71.66,0,0,1,65,44.43c.83-1.33,1.67-2.65,2.51-4a3.59,3.59,0,0,1,1.25-1.74c.42-.11.83-1,1.23-2.27.4-2.35.79-1.53,1.18-2.32.38-.36.76-1.58,1.12-1.87.36-.63.71-2.48,1-2.24.33-1.34.65-2.39.94-2.25a19.81,19.81,0,0,1,.84-2.89,11.42,11.42,0,0,0,.7-2.06c1-.71,2.23-1.19,3.34,1a11,11,0,0,1,1.56,1.88c.47.77.9.65,1.24,2.35s.6,1.15.74,2.47a6.67,6.67,0,0,1,0,2.27,10.74,10.74,0,0,1-1.66,3.41,8.28,8.28,0,0,1-3.27,3.2,16.77,16.77,0,0,1-4.13,3c-1.44.1-2.9.77-4.26,2.84A43.15,43.15,0,0,0,65.77,48a9.66,9.66,0,0,0-2.28,2.56c2,3.61,6.18,5.11,6.16,10.78a38.89,38.89,0,0,0,9.7-4.22c1.64-.92,3.28-2.75,4.94-2.88,1.65-.55,3.31-2.45,5-2.8,1.67-.73,3.35-1.38,5-2.29,1.68-.23,3.38-2.2,5.08-1.34a16.6,16.6,0,0,1,5.12.07A16,16,0,0,1,109.66,49.74Z"/><path class="c" d="M28.86,42.82c.37,2-10.61,9.6-13.08,3.84C20.19,45.43,25,44.62,28.86,42.82Z"/><path class="c" d="M.38,88.22a134.19,134.19,0,0,0,14.68-4.78c1.56-.6,3.11-1.22,4.65-1.84a6.12,6.12,0,0,0,4.59-1.9c1.52.14,3-.68,4.57-1.91,1.53.31,3.06-1.16,4.61-1.88,0-1.53-.62-3.29-1.67-3.66-1-1.51-2.49-.75-4.08-.72-1.59-.47-3.33.16-4.94.26-1.62.56-3.12-.24-4.25-.71a4.07,4.07,0,0,1-2-3.64c1.79-.33,3.59,1,5.33-.64,1.75.06,3.45-.9,5.06-1.5,1.6-1.08,3.12-.08,4.5-2.28,1.39-1.47,2.64-1.86,3.71-2.94,3.22-3.24,4.84-7.35,3.71-11.88-2.57,3-4.66,6.5-7.23,9.5a25.45,25.45,0,0,1-2.77,2.82c-1.93-.32-3.43-.28-4.51-.89a5.51,5.51,0,0,1-2-3.38,7.67,7.67,0,0,1,.38-4.2C32.83,58,37.66,39,47.33,49c.17.6,0,1.52.77,1.54-2.08,4.59-6.19,7.15-10,10,2.59,1.76,8.22-5.5,11.55-.77-1.43,2.67-4.08,4.13-6.87,5.44-1.4.66-2.83,1.27-4.17,2A6.73,6.73,0,0,0,35,69.75c1.15.71,2.47,2.24,3.87,1.9A12.73,12.73,0,0,0,43.25,71c1.5-.42,3-1,4.44-1.32a8.81,8.81,0,0,1,4.07-.26A6,6,0,0,1,55,72.06c-.85,1.36-1.89,2.25-3.05,2.11a21.69,21.69,0,0,1-3.7.54,27.66,27.66,0,0,0-3.78.38c-1.21-.12-2.35,1.12-3.32,1.59v5.38a5.63,5.63,0,0,0,3.77,2.2c1.51-.19,3.16,1,4.66,1.31a3.85,3.85,0,0,1,3.71,2.24,6.82,6.82,0,0,1,.94,5c-1.36.17-2.53-.66-3.6-1.4-1.07.33-2-1-2.95-2A16.81,16.81,0,0,1,45,87.14c-.93-.34-1.91-2.22-3-2a28,28,0,0,1,0,6.35c-.23,3.53-.68,3.62-1.3,6.09a18.94,18.94,0,0,1-2.37,4.9,7.49,7.49,0,0,1-3.19,2.75c-1.17,1.43-2.43.51-3.75-.33a45.14,45.14,0,0,1-4.05-4.37c.91-1.26,2.08-.51,3.3-.42s2.49,1.09,3.63-.35V85.91a8.25,8.25,0,0,0-3.95,2.16,17,17,0,0,0-2.82,3.75c-.81,1.25-1.53,3.46-2.23,4.28-.71.48-1.41,2.51-2.19,3.77-.78,1.46-1.64,2.36-2.67,2.2-1.67-.3-2.28-2.39-2.36-3.12a11,11,0,0,1,.81-4.46c.44-1.64.88-2.38.78-3.19A4.2,4.2,0,0,0,24,90.08a22.74,22.74,0,0,0,3.55-2c1.11-.76,2.16-1.56,3.25-2.33a26.11,26.11,0,0,1,3.47-2.12,5.5,5.5,0,0,0-.06-2.25,4.22,4.22,0,0,0-.71-1.59l-4.69,1.63c-1.51,1.24-3,1.59-4.43,2.5C17.1,88.47,10.24,94.24.38,89Z"/><path class="a" d="M692.31,130.06a7.57,7.57,0,0,0-1.4-3c-.95-.6-1-1.81-1.89-2.6a1.09,1.09,0,0,0-1.31-.25c-.17.08-.34-.17-.43,0A4.35,4.35,0,0,0,688,126c.18.43-.34.61-.52.88-.6.07-1-.45-1.21-.88-.34-1.56-2.35-1-3.3-2.26-.78.18-1-.69-1.39-1-.17-.43-.08-1.21-.61-1.39-.86-.18-1.29-1-2.25-1-.7-.87-1.64-1-2.25-1.92a2.33,2.33,0,0,1-1.21-2c0-.27.34-.18.43-.35-.09-.88-1.3-.88-1.48-1.74-1.13-.44-1.55-2.08-2.87-1.56a6.3,6.3,0,0,0,1.57,1.74v.09c.17.43.69.68.78,1.22a1.43,1.43,0,0,1-.43,1c-1,.18-1.65-.86-2.52-1.13-1-.08-1.55-1-2.08-1.83-1-.6-1,.87-1.9.79-.62-.35-.53-1.13-.53-1.73-.17-.52-.7-.1-1-.43-.26-.18,0-.44,0-.7-1.21-1.13-2.86-1.65-4-2.86-.43-1-1,.26-1.57-.35-.25-1.48-2-1.65-2.94-2.43a2.09,2.09,0,0,1-1-.95c-.09-.35.25-.35.42-.44-.26-1.12-1.56-1.38-2.43-1.56,0,.18.09.18.17.26.19.26.27.69-.08.87-.95.43-1.73-.34-2.52-.87-.43-.77-1.55-.08-1.73-1.13-.69,0-.6-1-1.3-.78a6.41,6.41,0,0,0-2.51-.34c-.36,0-.7-.26-.52-.7-.09-.18-.27-.18-.44-.18-.69.18-.52-.77-1.21-.68a.53.53,0,0,1-.35-.78c-.09-.26-.44-.35-.7-.44-1.13-1.12-2.86-1.48-4-2.51-.87.18-1.39-.79-2.26-.7-.52-.17-1.48.09-1.91-.61.43-1.39-1-.26-1.3-1.12-.87.08-1.56-.6-2.34-.69-.35-.79-1.3-.44-1.91-.61-.52-.69-1.56-.6-2.16-1a9.56,9.56,0,0,1-2.87-2.08c-.26-.43-.61.26-.95,0s-1.21-.35-1.3-1c-.35-1,1.13-1.39.86-2.42a9.25,9.25,0,0,0,1.74-2.35c.18-.43.78-.52.87-.95A27.91,27.91,0,0,0,627,80c.69-.1,1-.87,1.47-1.39,0-.44.7-.53.61-1a6.07,6.07,0,0,0,1.74-2.95c-.18-.78.77-1,.52-1.83.69-.52.34-1.47,1.13-2,.09-.61-.09-1.38.68-1.82a4.83,4.83,0,0,0,.19-2.94,2.1,2.1,0,0,0,.34-1.23,1.92,1.92,0,0,0,.08-1.55c-.26-.52.27-1,.18-1.66-.09-.43-.6-.08-.87-.25-.09-.18-.51-.26-.43-.6s0-.61.34-.7a.51.51,0,0,1,.61.16c.17,0,.26.18.35,0A5.94,5.94,0,0,0,632.82,59a1.5,1.5,0,0,1-.44-1.46c-.79-.62-.35-1.74-.79-2.61a4.81,4.81,0,0,0-.25-2.68c-.26-.45.43-1.22-.35-1.4a12.69,12.69,0,0,0-3.3-3.47,5,5,0,0,1-1.82-1.73c-.78-.44-2-.18-2.52-1.3-.44,0-.86-.61-1.29-.44L622,43.6a3.77,3.77,0,0,0-2.17-.7c-.86-.6-1.91.26-2.69-.43s-2.16-.44-3-1.39c-.87-.35-.69-1.48-.69-2.43a7.68,7.68,0,0,0,.52-2.51c.44-1.22.26-2.7,1-3.91.34-1.3.69-2.76,1-4.15l-.18-1.22-.62-1c0-1.12-1.12-1.73-1.64-2.6l-.18-.87c-.78-.09-1-1-1.64-1.39-.18,0-.18-.09-.26-.25-.79-.27-.44-1.3-1.13-1.57-1.3-1.12-1.65-2.94-2.51-4.33a3.13,3.13,0,0,0-2.35-.43c-.77-.09-1,1-1.82.77-.43.87-.18,1.83-.34,2.61.69.52,1.21,1.74,2.16,1.74.52-.36,1.21-.27,1.66-.62,1.38.1.6,1.74.94,2.69a23.13,23.13,0,0,1-.86,2.78,9.13,9.13,0,0,1-.26,2.77c-.09.44-.27.7-.35,1,.26,1-.69,1.74-.61,2.69-.86.87-.43,2.17-.78,3.21-.6.61.09,1.48-.42,2a7.81,7.81,0,0,1-.88,2.69c0,.17,0,.35-.17.44.26.77-.7.95-.78,1.64.17,1.21-1.22,1.82-1,3-.87.43-.78,1.38-1.14,2.08a1.89,1.89,0,0,0,0,1.13c-.42.68,0,1.56-.25,2.16a2,2,0,0,0,.61,1.56c.26.79,1,.52,1.38,1.13.18.7,1,.52,1.65.61a4.14,4.14,0,0,0,2.34.35c.53-.6,1,.18,1.74-.18s.17-1.3,1-1.47,1.14-.95,1.74-1.3c.86.26,1.4-.35,1.92-1,1.38-.44,2.42.25,3.81.42.51,0,.87.62,1.39.44.26.35.78-.09,1,.44.77.09,1.12.95,1.9.86.52.87,1.65.69,2.34,1.22,1.21,0,1.65,1.39,2.94,1.31,1,.42.62,1.81,1.66,2.24a2.91,2.91,0,0,1,1,3l-.17.34a2.06,2.06,0,0,1-.26,2c.26.7-.26,1.39,0,2.18-.35.33-.26.69-.26,1.12-.44.44.09,1-.35,1.57-.09.6-.61,1-.61,1.46A2.16,2.16,0,0,1,626,69.28l-.26,1.12c-.09.6-1,.6-.87,1.21.44,1-.51,1.48-1,2.26-.09,1.13-1.21,1.91-1.48,2.95-.52.69-1.29,1-1.47,1.82-.62,1.56-2,2.16-3.13,3.29-.69.35-.69,1.56-1.64,1.14-.52-.09-.25.52-.43.77a.65.65,0,0,1-.7.09l-1.83-1c-1.55-.18-2.76-1.48-4.33-1.74-1.47-1-3.2-1.21-4.77-1.82-1.13-.78-2.68-.7-3.81-1.39-1.22.35-2-.7-3.13-.86-.78,0-1.3-.79-2.08-.44,0,1.21,1.47,1.13,2.17,1.56a3,3,0,0,1,1.57.43c.94.09,1.47.78,2.42.7,1,.17,1.65,1,2.69.86,1,.61,2.16.79,3,1.4a17,17,0,0,1,3,.86c.17.09.35.44.69.35.61.6,1.74.86,2.27,1.55a1.6,1.6,0,0,1,0,.87c-1,1.22-1.83-.6-2.7-.87-.34-.77-1.12-.07-1.65-.6-.52.26-1.12-.09-1.38-.17,0,.08.09.08.09.08s-.18.18-.26.18v-.26c-2.18-.44-4.26-1.3-6.42-1.56-.35-.27-.61-.43-1-.69A11,11,0,0,1,595.6,79c-.61-.35-1.47-.18-2-.61a7.66,7.66,0,0,1-3.12-1.56c-.09-.18,0-.26.08-.44a1.48,1.48,0,0,1,1.48.09,4.12,4.12,0,0,0,1.48.17,1.28,1.28,0,0,0-.35-.77,5.67,5.67,0,0,1-2.69-1.14c-1.91-.52-3.73-1.39-5.64-1.55-.52-.53-1.39-.18-1.82-.88-1.21.35-1.92-.86-3.13-.69-.52.09-.95-.43-1.47-.17-.53-.78-1.48-.53-2.34-.61-.35-.09-.7-.61-1.22-.34a6.53,6.53,0,0,1-2-1.14c-.09-.77-1.3-.68-1-1.65a2.56,2.56,0,0,0-1.65-1c-.87-.42-1.65.18-2.6-.25-.34-.43-1-.1-1.3-.43-1.65,0-3-.78-4.68-.7a3.89,3.89,0,0,0-2.08-1.13c-.44-.26-.87-.09-1.32-.26-.59-.69-1.64-.44-2.42-.35a.34.34,0,0,1-.34-.43c.16-.35-.27-.43-.44-.52-1,.17-1.73-.53-2.77-.44a10.1,10.1,0,0,0-4.16-1,5.22,5.22,0,0,0-1.83,2.51c-.6.44-.43,1.06-.6,1.66.69.77.52,2.08.69,2.94-.09.87.79,1.74.34,2.69a9.55,9.55,0,0,1,.88,3.21c.17.52,0,1.39.34,2,.69,1,.27,2.26.87,3.21a8.32,8.32,0,0,1,.43,2.86,1.78,1.78,0,0,1,.44,1.74,2.54,2.54,0,0,1,.09,1.73,13,13,0,0,1,.68,3.12,5.7,5.7,0,0,1,.53,2.08c-.26.26-.18.62-.09,1,.69.35.09,1.39.61,1.82.08,1.13.26,2.17.43,3.2a11,11,0,0,1,.78,3.65c.61,1.39,1,2.86,1.57,4.16,0,.18.34.35.17.53.08.34.08.69.52.77l-.18.09c0,.17.18.35.26.44.09.7.78,1.12,1.13,1.73.08,1,1.13,1.57,1,2.69.26.35.78.78.87,1.21.86.43,1.3,1.39,2,2s1.57.7,2,1.48c1,.52,2,1.13,3,1.64a2,2,0,0,0,1.64.79c.18-.09.18-.43.45-.61a23.4,23.4,0,0,0,2.51-.09,3.49,3.49,0,0,1,1.65-.17c.69-.43,1.56.17,2.34-.17.27.17.52.43.78.43v-.35c1-1.3,3-.68,4.43-1.3a17.45,17.45,0,0,1,3.63-1.46,6.52,6.52,0,0,0,3.3-1.48c-.43-1,.69-1,1.13-1.47.61-.26.86.25,1.3.34l1.13-.87c.25-.17.52-.08.7-.43,1.12-.52,1.9-1.83,3.47-1.74.6-.26.86-1,1.64-1.13.26.09.52-.08.69.27.18.17,0,.52-.26.69-1.21,1-2.94,1.73-3.81,3.12,1.48,0,2.51-1.48,3.64-2.25a17.66,17.66,0,0,0,5-3.47c.7-.17,1-1,1.73-1.13a8.79,8.79,0,0,1,2.69-2.34c.35.18.7-.18,1-.43s.43.17.77-.09a2.23,2.23,0,0,0,1.14-1.22c.52-.86,1.64-1,2.17-1.82.08-1,1-1.21,1.55-2s1.57-.78,1.91-1.73c1,.18.7-1.21,1.65-1.21,1.21-.44,1.39-2,2.77-2,.18-.17.53-.42.53-.78.35-.34.7-1,1.38-.95.26.26.69,0,1,0,.87.43,1.82.78,2.68,1.22a1.21,1.21,0,0,0,1,.43c1.39,1.29,3.3,1.29,4.51,2.86,1.13-.08,1.13,1.47,2.26,1.21.61.26.78,1.13,1.57,1,1,1,2.42,1.22,3.54,2l1.57.17c.43.53.52,1.21,1.3,1.21a32.87,32.87,0,0,0,3.21,1.75c1.22.68,2.6,1.12,3.82,1.91.43.26.51.69,1,.77,1,.78,2.16,1.14,3.11,2,.52,1-1,.35-1.38.79a8.32,8.32,0,0,0,1.38,1c.26.08.61.43.86,0l-.34-.26a1.16,1.16,0,0,1,.34-1.22c.44,0,.7.36,1,.7,1.12.17,1.72,1.3,2.76,1.48.62.43,1.13.86,1.74,1.29.25.35.7.53.78,1-.69.17.27.78-.53.87l.8.42v-.17c.08-.25.43-.08.61-.08.16-.44.69-.17,1-.17a29.44,29.44,0,0,1,3.38,2.33c.09.27-.08.43-.34.43-.87-.16-1.56-1-2.44-1.37-.08.17-.17.25-.17.34.61.87,1.74,1.12,2.26,2l.52-.51a.55.55,0,0,1,.79.08c.17.27,0,.52-.27.7.35.17.87.17,1,.69-.09.08,0,.17.08.17.35.08.78.35,1.13,0,.34.35,1.13.52,1,1,.53.34,1,.78,1.56.51.7.09.87.79,1.57.79a4,4,0,0,1,1.64.69c.53.52.79,1.3,1.66,1.3.08,0,.16.26.34.09-.34-.44-.86-.35-1.21-.78.08-.53-.52-.78-1-1-.51-1-1.81-.77-2.6-1.55.09-.18-.08-.44.18-.61.7-.61.7.52,1.12.68a1.8,1.8,0,0,1,1.75,1c.78,0,1,.79,1.55,1.22.87,0,1.05,1.13,1.92,1.13a13.66,13.66,0,0,1,2.43,1.38c.34.18.08.61,0,.78a.82.82,0,0,1-.79,0c-.08.09-.08.18-.08.35-.18.52-.61,0-.88.09.09.34.44.43.7.69.26.61.87.26,1.3.7.53-.17,1,.25,1.39.43.69,1.13,2.08,1.21,2.69,2.25a22.59,22.59,0,0,1,2.95,2.09,1.91,1.91,0,0,1,1.29.68c.62.18,1,1.05,1.92.88a1.1,1.1,0,0,1,.6.86c.44.61.53,1.65,1.39,1.91.61.44,1-.6,1.47-.09.18.09.35.18.53,0,1-.25-.09-1.12.77-1.47.17-.43-.17-.87-.08-1.3C692.74,131.45,692.31,130.68,692.31,130.06ZM611.13,88.18a12.46,12.46,0,0,0-1.65,2.08c-.09.61.09,1.22-.18,1.65.27.78-.43,1.29-.25,1.91.34,1.21-1.21.77-1.48,1.56-.78.7-1.3,1.91-2.43,2-.51.35-1,.61-.95,1.31-.43.42-1,.08-1.22.78-.78.08-1.47,1.21-2.33.61-.53.24-1-.36-1.22-.61,0-.44.26-.87.17-1.22a20.85,20.85,0,0,0-4.51,3.38c-2.42,2-5,3.47-7.45,5.21a1.34,1.34,0,0,1-.78.86c-1.73-.34-2.79,1.48-4.17,2-.26.26-.52.6-.86.43-.1-.09-.18-.09-.26,0-.18.87-1.22.61-1.57,1.31-.69.51-1.82.25-2.25,1.2-1.38.44-2.53,1.56-3.9,1.92-.62.34-1.05-.36-1.48.25a1.1,1.1,0,0,0-1.39.53c-.51,0-1-.35-1.3.17-1.21-.09-2.26.52-3.47.44a5.48,5.48,0,0,0-.86-.61.71.71,0,0,1-1,.26A44.39,44.39,0,0,1,560,112.8a2.29,2.29,0,0,1-.77-1.72c-1-.7-.88-1.91-1.31-2.87-.43-1.91-1.48-3.47-2-5.47-.52-1.37-.79-2.94-1.3-4.42A35.21,35.21,0,0,1,553,92.08c-.61-1.39,0-3.21-1-4.5a22.45,22.45,0,0,0-.7-4,17,17,0,0,1-.17-2c-.35-1-.61-2.26-1-3.3a15.39,15.39,0,0,0-.87-5.2c.08-.87,0-1.82.08-2.69l.18-2a1.41,1.41,0,0,1,1.3-.43c.18.34.61.26.95.43.53-.26,1,.43,1.48.09.6-.18.51.52,1,.69.34-.08.77,0,.94-.35.18.18.18.45.09.52.52.62,1.39.1,1.91.62l1.12.08c.61.86,1.65.78,2.44,1.39.51-.17,1.21,0,1.48-.44a1.85,1.85,0,0,1,1.81.61c.44.09.79-.34,1.13,0a12.84,12.84,0,0,0,4.25,1.57A16.83,16.83,0,0,0,572,74a9.76,9.76,0,0,0,2.17.78.4.4,0,0,0,.44-.09c.52.09,1,.44,1.47.35.27.43.95.17,1.3.61.26-.09.42-.26.69-.26.52.61,1.22.61,1.82.95.78.35,1.74.26,2.43.86,1-.16,1.47,1,2.52.79.17.17.27.08.43.08a1.32,1.32,0,0,0,1,.53c.34-.09.77-.7,1.22-.26.08.51.77.7,1.12,1,.33-.25.69,0,1-.17.45.43.79,1.21,1.48,1-.25-.43-1.21-.34-1-1a1.81,1.81,0,0,1,2.08-.19c.34.19.78-.42,1.13,0,.52,1,1.91.44,2.6,1.22.52.17.78.69,1,1,.51.69,1.39-.17,2,.44.09.34.61.61.27,1-1.22.61-1.91-1-3.12-.86a3.84,3.84,0,0,0-1.39-.26,23,23,0,0,0-2.44-.87c.44.52,1.05,1.48,2,1.29a8.87,8.87,0,0,1,4.08,1.83c.78.26,1.82,0,2.33.77,1.23.44,2.26,1.14,3.48,1.48.08-.09.26-.09.35-.25-.78-.88-2-1-2.78-1.74a.93.93,0,0,1-.17-.53c.86-.51,1.56.35,2.42.62a13.31,13.31,0,0,1,4.26,1.65c.94.34,1.73,1.3,2.77,1.64A.8.8,0,0,1,611.13,88.18Zm56.46,29.13a12.61,12.61,0,0,0-2.51-.33c-.26-.09-.18-.44,0-.61a1.63,1.63,0,0,1,1.56,0c.25.43.86.25,1.12.69C667.85,117.23,667.68,117.31,667.59,117.31Zm12.67,9.11c-1-.25-1.65-1-2.52-1.38a.78.78,0,0,1-.08-.61c.08-.09.17-.26.33-.26a2.49,2.49,0,0,1,1,.87c.52.26,1.22.44,1.48.95A.46.46,0,0,1,680.26,126.42Zm9.27,3.47c-.17.09-.34.17-.42.09-.88-.87-2.09-.87-3-1.38-.27-.43-.79-.7-.61-1.31s.61,0,.87,0c.77.61,1.9.7,2.34,1.65.26,0,.44.26.69.35A.56.56,0,0,1,689.53,129.89Z"/><path class="a" d="M621.72,92.87c-.79-.61-1.92-.35-2.69-1,0,.35.51.26.34.61,0,.61.7.42,1,.68a5.45,5.45,0,0,0,2.35.27C622.58,93.13,622.06,93,621.72,92.87Z"/><path class="a" d="M633.07,98.07a5.76,5.76,0,0,1-1.56-.53,3.16,3.16,0,0,0-3.12-1.46c-.61-.1-.44-.79-.95-1-1-.17-1.74-.78-2.61-.78a1,1,0,0,0-1-.08l.09.17a12.23,12.23,0,0,1,1.73.69c.51.62,1.38.7,2.08,1,.61.85,1.56.77,2.17,1.46,0,1,1.13.7,1.56,1,1.13-.26,1.73,1,2.68.78C633.94,98.85,633.34,98.59,633.07,98.07Z"/><path class="a" d="M644.35,99a35.93,35.93,0,0,1,4.15,1.82c.36.26.88.69,1.32.61a.68.68,0,0,0-.18-.44c-1.21-.43-1.91-1.47-3.21-1.73A5.33,5.33,0,0,0,644,98.5C643.92,98.76,644.18,98.93,644.35,99Z"/><path class="a" d="M636.45,100.41a4,4,0,0,0-2-.87v.17c.79.09,1.23.87,2,1,.18.08.44.34.35.61a3.76,3.76,0,0,0,1.91,1c0-.08-.09-.17,0-.17l.08.09c.7-.09.87,1,1.65.69v-.52a5.57,5.57,0,0,0-1.56-.87A4,4,0,0,0,636.45,100.41Z"/><path class="a" d="M642.18,104.31c.42.87,1.65.87,2.6,1v-.44a3,3,0,0,0-1.3-.52C643.22,103.7,642.52,104,642.18,104.31Z"/><path class="a" d="M646,105.52c-.34-.43-.7.09-.86.27.09.09.09.17.25.17s.27.26.36.17c.42-.86.69.35,1.21.17C647,105.79,646.26,105.79,646,105.52Z"/><path class="a" d="M652.33,109.17l.09,0v0Z"/><path class="a" d="M652.42,109.19c-.07.84,1,.76,1.38,1.1a.6.6,0,0,0,.51.26c.61.69,1.41.62,2.18.79,0-.17-.18-.26-.18-.35A24.41,24.41,0,0,0,652.42,109.19Z"/><path class="a" d="M670.28,111.77c-.44-.6-1.21-.78-1.82-1.13-.35-.09-.78-.35-1-.09,1,.27,1.74,1.22,2.78,1.31Z"/><path class="a" d="M679,118.35c.43.62,1.48.62,1.56,1.66.53.17.78,1.3,1.48.78.42,0,.69.52,1,.6s.53.27.78.18c0-.08,0-.08-.09-.18-1.3-.08-1.3-1.29-2.42-1.81-.78,0-1.12-.7-1.82-.87-.35-.27-.52-.87-1.13-.78l.18.26C678.69,118.28,678.87,118.44,679,118.35Z"/><path class="a" d="M731.77,57.07c-.79-.2-1.76-.2-2.14-1.17-3.12-.58-6.21,1.17-9.13,1.36-2.52,1-5.24,2.13-8,3.1a26.11,26.11,0,0,1-5.63.2,7.26,7.26,0,0,0-2.92-.77c-1.55-1.17.38-2.33,0-3.5-.39-1.55-1.17-3.3,0-4.85-.19-1.37-.39-2.92.58-4.08-.58-1.16.78-2.33-.39-3.11,1.17-2.32,0-5.63,1.74-7.76.79-1.55,2.54-1.36,3.71-2.71,2.13,0,2.51-2.14,4.26-2.92,1-1.16.78-2.33,1.94-3.5.2-.78.59-1.55.2-2.33-.78-1,.39-1.74,1-2.32.58-.78.2-1.76.39-2.73,1.16-1.15.38-2.7,0-4.07-1-1.35-1.17,1.17-2.34,1.55-2.13.78-2.91,3.11-5,3.89a1.49,1.49,0,0,1-1.93-.58c-.59-1.37-1-2.53-.2-3.89-1-1.74,1.16-3.1.38-5-.18-2.32,1.17-4.46.59-6.79.38-1.36-1.16-2.52-1.55-3.69-.79-3.3-2.73.58-4.86-.19a17.94,17.94,0,0,0-.78,4.46c1.16-.38,1.55-1.74,2.91-1.94.78.2,1.17,1,1.55,1.56-.2,1.94.79,3.88-.57,5.62,1.16,1.56,1.16,3.49,1,5.44a14,14,0,0,1,0,6.41c-1.16,3.1-4.46,3.1-7.18,3.3-1,0-1.55-.78-2.12-1.55a18.83,18.83,0,0,1-1.37-5.06c-1.94,3.31-.77,8.16-.2,11.46.2.78,1.16,1.17,1.16,2.13,1.75,1.95,4.28,2.91,6,4.86a26.23,26.23,0,0,1,0,6.8c0,1.93-1.16,3.49-.38,5.42-1.36,1.17-.19,2.54-.58,3.88,0,1.37-.39,2.34.19,3.51a8.09,8.09,0,0,0,1.75,6.21c.19.38,1,.78,1,1.35,2.93,1.56,5.83.2,9.13-.18,2.53-1,4.86-3.89,8-2.53.2,2.91-3.1,4.08-4.85,6,1.94-.59,4.46-1,5.62-3.11,1.56.19,2.34-1.36,3.51-1.95a2.1,2.1,0,0,1,2.12-.38c2.14-.39,5.45-.19,6-3.1C733.89,58.42,732.74,57.84,731.77,57.07Z"/><path class="a" d="M671.77,3.88a4.29,4.29,0,0,0-2.13,3.88c1.17,2.52-1.94,2.14-2.13,4.07-1.37,1.37-1.75,3.5-2.91,5-2,.78-1.16,2.92-2.72,3.69-.38,1.75-2.34,2.33-3.49,3.1-.2,1.76-2.72,2.34-2.72,4.08-.2,1.36-1.75,1.95-2.91,2.14-1.16.38-1,1.55-2.14,1.75C649.26,34,646.35,34,645,36.29c-1.36.39-2.92,1.56-4.47,1.36-1.55.78-1.93,2.72-2.12,4.08,1.35,1.55,3.3,1.55,5,2.52,1.36-.19,2.91.4,4.27-.39,4.46-1,9.31-1.55,13-4.84a12.93,12.93,0,0,0,3.69-4.28c1.56-.58,2.14-2.52,3.69-3.1,1.17-1.94,2.72-3.49,3.31-5.63.19-1,.19-2.34,1-3.11.59-1-.19-1.75-.19-2.52,1.94-1.17.39-3.1,1.35-4.85-.18-.78,1-1.37.39-2.14a3.55,3.55,0,0,0-.39-3.11c.59-1.55-.57-3.1.59-4.26a10.1,10.1,0,0,0-1-5.83A5.18,5.18,0,0,0,671.77,3.88Z"/><path class="a" d="M669.07,54.35a19.06,19.06,0,0,0-.2-4.66,9.09,9.09,0,0,1,0-2.33c-3.11.78-2.73-2.71-4.47-3.88-1,.19-.58,1.17-.58,1.94-1.17,1.16,0,2.52-.78,3.88-.39.39.2,1.16-.39,1.55.2,1.56-.57,2.92-.77,4.28-.38,1.16.2,2.33-.58,3.29.58,1.56-1.76,2.73-.59,4.28-.2,1.94-.58,4.26-.77,6.21,1,.77,0,1.94,1,2.72-.58,1,0,2.13.19,2.91,1.75.78.4,3.68,2.92,4.07a2.29,2.29,0,0,0,1.74-1.75c-.19-1.16,1.17-2.32,1-3.68-1.16-2.14,1.16-3.3,1-5.24,0-2.92,1.17-5,1-8A9.29,9.29,0,0,0,669.07,54.35Z"/><path class="a" d="M757.4,34.81c1.59-.4,3.79.59,5.18-.8a7.35,7.35,0,0,1,4.2-.2,6.86,6.86,0,0,1,5.19,1,4,4,0,0,1,1.59,3.39c-1,1.2-1.4,2.39-2.6,3.39a46.08,46.08,0,0,0-3.19,5c-.6.4-.8,1.4-1.4,2,.41.8-1.19,1.39-.4,2.2a14.64,14.64,0,0,0,5,1.59c1.4.4,3.2,1,3.6,2.6-.4,1.39-1,3-2.4,3.2-3.79.39-7.18,3-10.37,4.78-2.2.8-4.2,2.79-6.78,1.79-1.4-1.59-1.2-3.58-1.4-5.78,1.2-2.2,1.2-5.19,4-6.39,2-2,.61-4.39.21-6.58,0-.2.19-.4.59-.4.2,1.19,1.2,1.79,2,2.4,1.21.19,1.8-1.4,2.4-2.4,0-2,3.78-4,1.19-5.79-3.4.21-6.18-1.39-8.77-3.19a5.16,5.16,0,0,1,.59-3.78C756.2,33.41,756.4,34.6,757.4,34.81Z"/><path class="a" d="M753.61,42.39c-.4,1.6-1.2,3-1.4,4.38-.8,2.4-1,5.19-1.8,7.59-.2,3-1.79,5.39-2,8.18-2,2.6-1.58,5.79-3.38,8.57-.6,1.81-.6,4.4-2.39,5.4-1,2.59-2.6,4.78-3.79,7.18a1.21,1.21,0,0,0,.39,1.39c3.19,1.41,5.38-2.19,8.18-3.19,2.4-1,4.39-3.38,7.18-3.79.41-1.39,2.4-1.2,3.39-2.2,2.2-.19,3.2-2,5.59-2,3.2-1.78,7-2.59,10.37-3.78,1.61,0,3.2-1,4.79-.61,1.4-.59,3.19.2,4.8-.59,1-.21,2.19.59,3.19,0,2.79.4,6.38.4,9.37.79a11.19,11.19,0,0,1,7.18,3.2c1.2.59,1.6,2.19,2,3.59h-.2c.8.59-.2,1.79.4,2.38-.6,1-1.19,2.4-2.4,2.61-1.2,2-2.79,4-4,5.78-1.39,3-2.39,6.19-4,9-.39,1.39-1.19,2.39-1.19,3.79a18.87,18.87,0,0,0-2.19,5.59c-.81,1.8-2,3.39-2.8,5-.4,1.21-1.19,2-1.39,3-1.2,1.59-2,3-3.2,4.39-2,1.79-2.79,4.79-5.78,5-1.2,0-1.61.8-2.6,1-2.39,0-5.18-.19-6.78-2.38-1.4-.21-2.2-2-3.2-2.59-2.78-2.4-5.58-4.8-7.38-7.58-1-.6-1.19-1.8-2.39-2.4-.8-1.19-1.8-3-3.79-3-.79.2-1.2-.59-1.8-1-.59-1.4,1.8-3,0-4.38.4.38.8.19,1.4.19a6.82,6.82,0,0,0,2.2-3.39,12.44,12.44,0,0,0,3.19-8.59c-1.6-1.19-2.59,1-4,1.41-1.4,1.2-3,2.18-3.39,4-.8.79-1.61,1.59-1.61,2.38l.21,1c-1.59,0-2.2,1.8-3.79,2a4,4,0,0,1-2.6-.8c-.19-1.39-2.6-1.2-2-3.19a4,4,0,0,1,.2-3.39,1,1,0,0,1,1.4-.2c.59.59.2,2,1.39,2.2,2.79-.8,4.59-3.59,7.38-4.79,3-3.4,8-4.6,12.38-3.8,1,.6,2.39,1.4,2.58,2.6a.81.81,0,0,0-.8.4.45.45,0,0,0,.41.4l.6-.21c.59,1.41-.8,2.4-1.6,3.2q-1.78,3.3-3.6,6c-.19.4-.19,1.4.61,1.4a20.6,20.6,0,0,0,5.78-1c1.6.4,4,.4,4.79,2.59.4,1.61-1.39,2.2-2.19,2.8-2.4.6-4.59,1.6-6.78,1.6-1.6,1-3.8,0-5.39.79-.6,0-1.2-.2-1.6.2-.4,1.6,1.4,3,2.59,4.19.8,0,.8,1,1.8.81,2.19,1.39,3.79,3.78,6.59,4.37,1.18,1.6,3.59.81,5.19,1.6,2.59.61,4.18-.79,6.18-1.39,1.59-1,3.19-1.8,3.78-3.59.81-1.4,1.8-2.59,2.8-4,2-5,5-10,6.38-15.36,1.21-2.2,2.2-5,3.4-7.39.39-3.18,3.19-5.38,2.78-9a3.38,3.38,0,0,0,.21-2c-.4-1-.4-2.39-1.19-3-2.8-1.79-6.59-1.19-9.58-1.19a25.33,25.33,0,0,0-6.59.4c-2.19.6-3.78,1.21-6,1.6-2.19,1-4.59,1.19-6.59,2.19-3.19,1-5.58,2.8-8.77,3.59a37.16,37.16,0,0,1-7.39,3.79c-1.2,1.19-2.79,1.4-4.19,2-.8,1.4-2.6.79-3.39,1.79-2.19,1.4-4.79,0-7,1.4-1.2,2-3.39,3.79-4.19,6-1.8,1.39-2,4.39-4,5.19-.6,2.21-3,2.21-4.19,3.79a3.8,3.8,0,0,1-2.79.8c-.61-.6-.41-1-.41-1.59a35.88,35.88,0,0,1,2.4-3.4c1.41-1.6,3.19-3.19,4.19-5.39,2-2,3.39-4.78,5.59-7,1.19-2.19,2-5,4.19-6.79a48.94,48.94,0,0,1,2.59-4.18c-.61-1,.6-1,.8-1.79,1.19-2.2,1.8-4.59,3.19-6.59.6-3.59,3.19-6,3.79-9.58a31.7,31.7,0,0,0,2.19-6.18c.4-.61.2-1.59,1-2.2.41-1.19.2-2.59,1.2-3.79-.4-1.19.4-2,1-3C753.81,41.59,753.61,42,753.61,42.39Z"/></svg>